<svg id="Layer_1" data-name="Layer 1" width="100px" height="100px"
xmlns="http://www.w3.org/2000/svg" viewBox="0 0 122.88 59.25"><defs><style>.cls-1{fill-rule:evenodd;}</style></defs><title>landscaping</title><path class="cls-1" d="M9.7,52.32c-5.76.93-9,3.26-9.7,6.93H122.88c-2.46-4.37-6.93-7.12-15.09-6.93h-7V17.45h8.88a2.66,2.66,0,0,0,2.64-2.65V3a1,1,0,0,0-1-1h-1.58V9.5a.37.37,0,0,1-.37.37h-2a.38.38,0,0,1-.37-.37V2h-2.67V9.5a.38.38,0,0,1-.37.37h-2a.37.37,0,0,1-.37-.37V2H98.82V9.5a.37.37,0,0,1-.37.37h-2a.38.38,0,0,1-.37-.37V2H93.42V9.5a.38.38,0,0,1-.38.37H91a.38.38,0,0,1-.38-.37V2H88V9.5a.38.38,0,0,1-.37.37h-2a.37.37,0,0,1-.37-.37V2H83.44a1,1,0,0,0-1,1V14.8a2.65,2.65,0,0,0,2.65,2.65h9.22V52.32H76.9a10.12,10.12,0,0,0,5.26-8.85V33.13a1.39,1.39,0,0,0-1.39-1.38h-7V8.14A4,4,0,0,0,76,4.59V4a4,4,0,0,0-4-4h0a4,4,0,0,0-4,4v.63a4,4,0,0,0,2.21,3.55V31.75H63.49A1.52,1.52,0,0,0,62,33.26V43.47a10.13,10.13,0,0,0,5.25,8.85H56c1.42-7.88,1.37-15-2.39-20.26a85.9,85.9,0,0,0-.74,11.87c-.08,3.9.49,5.13-1.09,8.39h-1a128.18,128.18,0,0,1-1.26-31.46A95.35,95.35,0,0,0,46,42.08l.3,8.12c-4.2-13.08-8-26.75-1.92-39.48C38.42,18,36.61,30.48,39,48.27l.81,4H31.68c1.44-8,1.39-15.21-2.42-20.49a62,62,0,0,0-.75,12c.16,3.83.81,5-1.08,8.49H26.37A130,130,0,0,1,25.1,20.51,96.07,96.07,0,0,0,21.62,42l.3,8.21c-4.24-13.23-8.12-27-1.94-39.93-6,7.37-7.85,20-5.4,38l.81,4.1ZM72.07,2.38h0a1.77,1.77,0,0,1,1.75,1.76v.27a1.77,1.77,0,0,1-1.75,1.76h0a1.75,1.75,0,0,1-1.75-1.76V4.14a1.75,1.75,0,0,1,1.75-1.76Z"/></svg>