<svg id="Layer_1" data-name="Layer 1" width="100px" height="100px" xmlns="http://www.w3.org/2000/svg" viewBox="0 0 122.88 69.25"><defs><style>.cls-1{fill-rule:evenodd;}</style></defs><title>watering-can</title><path class="cls-1" d="M78.41,68.67l32.26-15.33a5.75,5.75,0,0,0,2.77-7.82l-.54-1,2.82-1.35a12.55,12.55,0,0,0,6-16.69L114.1,10.59a4,4,0,0,0-.22-.47,12.58,12.58,0,0,0-16.32-5.8,4,4,0,0,0-.47.22L92,7,91.9,7a6,6,0,0,0-7.67-2.53l-27,12.84a6,6,0,0,0-2.78,7.82l7.25,18.29L46.73,38c-1-.38-.82-.24-1.28-1.27l-3.73-8.24c-.91-2-1-3-2.86-4.25a6.63,6.63,0,0,0-3.58-1.13L26,50.4a7.09,7.09,0,0,0,2.93,1.07c1.88.2,2.93-.62,4.57-1.42l9.42-4.58c.44-.22.32-.25.74,0l24,13,2.93,7.4a5.76,5.76,0,0,0,7.82,2.78Zm-56-24.59a1.45,1.45,0,0,0,.67-2.83,18.29,18.29,0,0,0-3.1-.47,1.46,1.46,0,0,0-.63,2.81,1.57,1.57,0,0,0,.43.09,14.8,14.8,0,0,1,2.63.4ZM2.91,46.8a1.46,1.46,0,0,0,1.46,2.48,1.28,1.28,0,0,0,.37-.23A26.89,26.89,0,0,1,7,47.42,1.45,1.45,0,0,0,5.8,44.8a1.4,1.4,0,0,0-.43.2c-.86.59-1.65,1.14-2.46,1.8Zm7.9-4.59A1.45,1.45,0,0,0,11.39,45a2.15,2.15,0,0,0,.44-.09,19.81,19.81,0,0,1,2.59-.79,1.46,1.46,0,0,0-.13-2.86,1.51,1.51,0,0,0-.52,0,23.48,23.48,0,0,0-3,.9Zm14.55-6.8A1.47,1.47,0,0,0,27.1,35a1.45,1.45,0,0,0-.57-2.21,16.68,16.68,0,0,0-3-1,1.45,1.45,0,0,0-.65,2.83,13.8,13.8,0,0,1,2.5.82Zm-25,4.12a1.43,1.43,0,0,0-.08,1.8,1.45,1.45,0,0,0,2.27.1L3,41a1.45,1.45,0,0,0-1.74-2.28A1.93,1.93,0,0,0,.88,39c-.18.19-.35.38-.52.58Zm5.37-4.42A1.47,1.47,0,0,0,5,36.4a1.45,1.45,0,0,0,2.19,1.21,22.44,22.44,0,0,1,2.43-1.27,1.45,1.45,0,0,0-1.2-2.65,30.33,30.33,0,0,0-2.71,1.42Zm8.53-3.32a1.45,1.45,0,0,0,.19,2.87,1.7,1.7,0,0,0,.39,0,24.55,24.55,0,0,1,2.69-.39,1.45,1.45,0,0,0-.23-2.89,25.86,25.86,0,0,0-3,.43Zm14-3.83a1.45,1.45,0,0,0,2-2,1.47,1.47,0,0,0-.46-.47,19.85,19.85,0,0,0-2.78-1.45,1.45,1.45,0,0,0-1.54,2.41,1.53,1.53,0,0,0,.4.26A15.53,15.53,0,0,1,28.28,28Zm-27.21.58a1.45,1.45,0,0,0,1.75,2.29,1.37,1.37,0,0,0,.24-.18A17.74,17.74,0,0,1,5.13,29,1.45,1.45,0,0,0,4,26.34a1.73,1.73,0,0,0-.54.23,22.86,22.86,0,0,0-2.42,2Zm2.42-2L5.13,29,3.49,26.57ZM9,23.77a1.45,1.45,0,1,0,1,2.73c.88-.29,1.69-.55,2.6-.76a1.45,1.45,0,0,0-.11-2.85,1.25,1.25,0,0,0-.51,0,29.57,29.57,0,0,0-3,.86ZM18,22.25A1.45,1.45,0,0,0,17.36,25a1.4,1.4,0,0,0,.63.16,20.6,20.6,0,0,1,2.72.18,1.45,1.45,0,0,0,1-2.65,1.51,1.51,0,0,0-.61-.23,24.07,24.07,0,0,0-3.06-.2ZM84.21,2C82.35.23,79.89-.62,77.5.52L57.89,9.84A5.85,5.85,0,0,0,54.76,16L84.21,2Zm25.3,36.47L95.3,13.09l5-2.37a5.6,5.6,0,0,1,7.43,2.63l7.67,16.13a5.63,5.63,0,0,1-2.63,7.44l-2.88,1.37c-.13.06-.25.13-.37.2Z"/></svg>